<?xml version="1.0" encoding="UTF-8"?>
<svg width="490px" height="98px" viewBox="0 0 490 98" version="1.1" xmlns="http://www.w3.org/2000/svg" xmlns:xlink="http://www.w3.org/1999/xlink">
    <!-- Generator: Sketch 61.2 (89653) - https://sketch.com -->
    <title>logo_versao_negativa_branca</title>
    <desc>Created with Sketch.</desc>
    <g id="Page-1" stroke="none" stroke-width="1" fill="none" fill-rule="evenodd">
        <g id="Desktop-HD" transform="translate(-417.000000, -306.000000)">
            <g id="logo_versao_negativa_branca" transform="translate(415.000000, 305.000000)">
                <path d="M4.6157049,78.4464103 L44.715025,78.4464103 C55.9099572,78.4464103 63.4422016,71.2837386 63.4422016,60.5388026 C63.4422016,49.8960048 55.9099572,43.245881 44.715025,43.245881 L22.221726,43.245881 C19.3717375,43.245881 17.8442323,41.9162277 17.8442323,39.4593403 C17.8442323,37.00431 19.3717375,35.6727996 22.221726,35.6727996 L60.5922131,35.6727996 L60.5922131,22.1664188 L20.8973957,22.1664188 C9.70431046,22.1664188 2.17391304,29.3290904 2.17391304,40.0740264 C2.17391304,50.7168243 9.70431046,57.1626717 20.8973957,57.1626717 L43.3906946,57.1626717 C46.2406831,57.1626717 47.7663412,58.5963202 47.7663412,61.0513505 C47.7663412,63.5063809 46.2406831,64.9400294 43.3906946,64.9400294 L4.6157049,64.9400294 L4.6157049,78.4464103 Z M103.744697,79.4696491 C124.71049,79.4696491 137.33134,68.6225749 137.33134,50.3064145 C137.33134,31.9902542 124.71049,21.14318 103.744697,21.14318 C82.7770557,21.14318 70.1580528,31.9902542 70.1580528,50.3064145 C70.1580528,68.6225749 82.7770557,79.4696491 103.744697,79.4696491 L103.744697,79.4696491 Z M103.744697,65.9632682 C93.2608761,65.9632682 87.8656613,60.6427978 87.8656613,50.3064145 C87.8656613,39.9718883 93.2608761,34.6514179 103.744697,34.6514179 C114.228517,34.6514179 119.621885,39.9718883 119.621885,50.3064145 C119.621885,60.6427978 114.228517,65.9632682 103.744697,65.9632682 L103.744697,65.9632682 Z M152.18896,78.4464103 L169.695241,78.4464103 L169.695241,35.6727996 L188.422418,35.6727996 L188.422418,22.1664188 L169.695241,22.1664188 L169.695241,20.9389036 C169.695241,16.5395339 172.035446,14.0826465 178.446534,14.0826465 C182.619006,14.0826465 186.488563,14.4930563 189.948076,15.2080235 L189.948076,3.23557231 C186.385128,1.90591898 181.907894,1.08695652 177.327226,1.08695652 C160.025967,1.08695652 152.18896,8.45576158 152.18896,20.2220793 L152.18896,22.1664188 L143.234492,22.1664188 L143.234492,35.6727996 L152.18896,35.6727996 L152.18896,78.4464103 Z M230.658767,79.1632345 C235.84896,79.1632345 240.226454,78.0378576 243.889142,76.2977945 L243.889142,64.2232051 C239.714823,65.0421676 236.358744,65.4507203 232.692363,65.4507203 C226.587883,65.4507203 223.329698,62.99569 223.329698,56.1394328 L223.329698,35.6727996 L243.889142,35.6727996 L243.889142,22.1664188 L223.329698,22.1664188 L223.329698,6.91997484 L205.825264,6.91997484 L205.825264,22.1664188 L196.868949,22.1664188 L196.868949,35.6727996 L205.825264,35.6727996 L205.825264,55.2183322 C205.825264,70.9773241 212.441375,79.1632345 230.658767,79.1632345 L230.658767,79.1632345 Z M255.390683,98.9130435 L272.895117,98.9130435 L272.895117,73.5344926 C278.288485,77.6293049 283.6837,79.4696491 291.012769,79.4696491 C308.515356,79.4696491 319.91531,68.6225749 319.91531,50.3064145 C319.91531,32.4006639 310.451058,21.14318 293.046365,21.14318 C285.312792,21.14318 279.308053,23.2917958 272.691942,28.9205377 L272.691942,22.1664188 L255.390683,22.1664188 L255.390683,98.9130435 Z M286.635276,65.9632682 C281.749845,65.9632682 276.966002,64.2232051 272.895117,61.0513505 L272.895117,40.9951271 C276.557805,37.3125816 282.257782,34.6514179 288.772305,34.6514179 C297.322271,34.6514179 302.205855,40.1761646 302.205855,50.1021382 C302.205855,60.9492124 295.794766,65.9632682 286.635276,65.9632682 L286.635276,65.9632682 Z M329.787759,78.4464103 L347.29404,78.4464103 L347.29404,1.70164263 L329.787759,1.70164263 L329.787759,78.4464103 Z M379.556353,79.4696491 C388.207906,79.4696491 395.433541,75.7871036 401.030084,70.1583616 C401.030084,72.6133919 401.334846,75.99138 401.946218,78.4464103 L419.044302,78.4464103 C418.026581,75.0702793 417.620231,70.362638 417.620231,65.0421676 L417.620231,45.8049066 C417.620231,31.1712917 411.31073,21.14318 388.612409,21.14318 C377.315889,21.14318 366.630741,23.5982103 358.488972,28.510128 L364.288689,40.4844362 C372.737068,36.391481 378.536785,34.6514179 386.883576,34.6514179 C397.263962,34.6514179 400.317125,37.2085864 400.317125,43.7565719 C367.240265,44.4752533 357.266229,50 357.266229,61.9724512 C357.266229,73.1259399 366.120957,79.4696491 379.556353,79.4696491 L379.556353,79.4696491 Z M381.896558,66.7822307 C376.60293,66.7822307 374.36616,65.2464439 374.36616,61.7681748 C374.36616,57.2648098 378.437045,54.3993698 400.317125,53.0697164 L400.317125,60.1302499 C393.09149,64.8360342 387.4931,66.7822307 381.896558,66.7822307 L381.896558,66.7822307 Z M430.241081,78.4464103 L447.745515,78.4464103 L447.745515,41.3015416 C452.425924,37.4128627 458.02616,35.0599706 463.927465,35.0599706 C471.1531,35.0599706 473.799914,38.9486495 473.799914,47.1345599 L473.799914,78.4464103 L491.304348,78.4464103 L491.304348,45.6006302 C491.304348,29.2269523 485.707805,21.14318 469.42242,21.14318 C460.364518,21.14318 454.666388,23.7022055 447.54234,29.2269523 L447.54234,22.1664188 L430.241081,22.1664188 L430.241081,78.4464103 Z" id="Fill-2" fill="#FFFFFF"></path>
                <polygon id="Fill-4" fill="#000000" points="4.34782609 98.9130435 19.5652174 98.9130435 19.5652174 83.6956522 4.34782609 83.6956522"></polygon>
            </g>
        </g>
    </g>
</svg>